<?xml version="1.0" encoding="UTF-8" standalone="no"?>
<!-- Created with Inkscape (http://www.inkscape.org/) -->

<svg
   width="47.48mm"
   height="15.5mm"
   viewBox="0 0 47.48 15.5"
   version="1.1"
   id="svg5"
   inkscape:version="1.2.2 (732a01da63, 2022-12-09)"
   sodipodi:docname="logo_full_fontless.svg"
   xmlns:inkscape="http://www.inkscape.org/namespaces/inkscape"
   xmlns:sodipodi="http://sodipodi.sourceforge.net/DTD/sodipodi-0.dtd"
   xmlns="http://www.w3.org/2000/svg"
   xmlns:svg="http://www.w3.org/2000/svg">
  <sodipodi:namedview
     id="namedview7"
     pagecolor="#ffffff"
     bordercolor="#666666"
     borderopacity="1.0"
     inkscape:pageshadow="2"
     inkscape:pageopacity="0.0"
     inkscape:pagecheckerboard="0"
     inkscape:document-units="mm"
     showgrid="false"
     inkscape:zoom="3.8228468"
     inkscape:cx="66.181046"
     inkscape:cy="31.390219"
     inkscape:window-width="2880"
     inkscape:window-height="1514"
     inkscape:window-x="-11"
     inkscape:window-y="-11"
     inkscape:window-maximized="1"
     inkscape:current-layer="layer1"
     showguides="true"
     inkscape:guide-bbox="true"
     width="47.48mm"
     inkscape:showpageshadow="0"
     inkscape:deskcolor="#d1d1d1">
    <sodipodi:guide
       position="22.009121,281.49673"
       orientation="0,-1"
       id="guide21917"
       inkscape:locked="false" />
  </sodipodi:namedview>
  <defs
     id="defs2">
    <style
       id="style4">
      @import url(&quot;https://fonts.googleapis.com/css2?family=Quicksand:wght@500;600&quot;);
    </style>
  </defs>
  <g
     inkscape:label="Layer 1"
     inkscape:groupmode="layer"
     id="layer1">
    <g
       aria-label="ippy"
       id="text13803"
       style="font-weight:600;font-size:9.87777px;line-height:1.25;font-family:Quicksand;-inkscape-font-specification:'Quicksand Semi-Bold';fill:#34758a;stroke:#34758a;stroke-width:0">
      <path
         d="m 9.9593461,12.788244 q 0,0.217311 -0.1382888,0.365478 -0.1382888,0.138288 -0.3555998,0.138288 -0.2074331,0 -0.3555997,-0.138288 Q 8.971569,13.005555 8.971569,12.788244 V 8.5605583 q 0,-0.217311 0.1382888,-0.3555998 0.1481666,-0.1481665 0.3555997,-0.1481665 0.217311,0 0.3555998,0.1481665 0.1382888,0.1382888 0.1382888,0.3555998 z M 9.4555798,7.4048591 q -0.2864554,0 -0.4148664,-0.098778 Q 8.9123024,7.197426 8.9123024,6.9504817 V 6.7924374 q 0,-0.2469443 0.1382888,-0.345722 0.1382888,-0.098778 0.4148663,-0.098778 0.2963331,0 0.4247442,0.1086555 0.1284113,0.098778 0.1284113,0.3358442 v 0.1580443 q 0,0.256822 -0.1382891,0.3555997 -0.128411,0.098778 -0.4247441,0.098778 z"
         id="path306" />
      <path
         d="m 13.910455,8.0074031 q 0.691444,0 1.224844,0.345722 0.543277,0.345722 0.859366,0.948266 0.316088,0.5926662 0.316088,1.3828879 0,0.790222 -0.316088,1.402643 -0.316089,0.602544 -0.849489,0.948266 -0.533399,0.345722 -1.205088,0.345722 -0.375355,0 -0.711199,-0.118533 -0.335844,-0.118533 -0.592666,-0.306211 -0.256822,-0.197555 -0.424744,-0.414866 -0.158045,-0.217311 -0.197556,-0.404989 l 0.2667,-0.128411 v 2.755898 q 0,0.217311 -0.148167,0.3556 -0.138288,0.148166 -0.345722,0.148166 -0.21731,0 -0.355599,-0.148166 -0.138289,-0.138289 -0.138289,-0.3556 V 8.5803138 q 0,-0.2074332 0.138289,-0.3555997 0.138289,-0.1481666 0.355599,-0.1481666 0.207434,0 0.345722,0.1481666 0.148167,0.1481665 0.148167,0.3555997 V 9.26188 l -0.158044,-0.0889 q 0.02963,-0.1876776 0.187677,-0.385233 0.158045,-0.2074332 0.395111,-0.3852331 0.246944,-0.1777998 0.553155,-0.2864553 0.316089,-0.1086555 0.651933,-0.1086555 z M 13.8018,8.916158 q -0.474133,0 -0.829733,0.2370665 -0.345722,0.2271887 -0.543277,0.6222995 -0.197556,0.395111 -0.197556,0.908755 0,0.503766 0.197556,0.918633 0.197555,0.404988 0.543277,0.642055 0.3556,0.227188 0.829733,0.227188 0.464255,0 0.809977,-0.227188 0.345722,-0.237067 0.543277,-0.642055 0.207433,-0.414867 0.207433,-0.918633 0,-0.503766 -0.207433,-0.8988772 Q 14.957499,9.3804132 14.611777,9.1532245 14.266055,8.916158 13.8018,8.916158 Z"
         id="path308" />
      <path
         d="m 20.044553,8.0074031 q 0.691444,0 1.224844,0.345722 0.543277,0.345722 0.859366,0.948266 0.316089,0.5926662 0.316089,1.3828879 0,0.790222 -0.316089,1.402643 -0.316089,0.602544 -0.849488,0.948266 -0.5334,0.345722 -1.205088,0.345722 -0.375356,0 -0.7112,-0.118533 Q 19.027143,13.143844 18.770321,12.956166 18.513499,12.758611 18.345577,12.5413 18.187533,12.323989 18.148022,12.136311 L 18.414721,12.0079 v 2.755898 q 0,0.217311 -0.148166,0.3556 -0.138289,0.148166 -0.345722,0.148166 -0.217311,0 -0.3556,-0.148166 -0.138289,-0.138289 -0.138289,-0.3556 V 8.5803138 q 0,-0.2074332 0.138289,-0.3555997 0.138289,-0.1481666 0.3556,-0.1481666 0.207433,0 0.345722,0.1481666 0.148166,0.1481665 0.148166,0.3555997 V 9.26188 L 18.256677,9.17298 Q 18.28631,8.9853024 18.444355,8.787747 18.602399,8.5803138 18.839465,8.4025139 19.08641,8.2247141 19.392621,8.1160586 19.708709,8.0074031 20.044553,8.0074031 Z M 19.935898,8.916158 q -0.474133,0 -0.829733,0.2370665 -0.345722,0.2271887 -0.543277,0.6222995 -0.197556,0.395111 -0.197556,0.908755 0,0.503766 0.197556,0.918633 0.197555,0.404988 0.543277,0.642055 0.3556,0.227188 0.829733,0.227188 0.464255,0 0.809977,-0.227188 0.345722,-0.237067 0.543278,-0.642055 0.207433,-0.414867 0.207433,-0.918633 0,-0.503766 -0.207433,-0.8988772 Q 21.091597,9.3804132 20.745875,9.1532245 20.400153,8.916158 19.935898,8.916158 Z"
         id="path310" />
      <path
         d="m 27.423252,8.056792 q 0.21731,0 0.355599,0.1481665 0.138289,0.1382888 0.138289,0.3555998 V 12.808 q 0,0.869243 -0.335844,1.412521 -0.325967,0.543277 -0.889,0.790221 -0.553155,0.256822 -1.254476,0.256822 -0.3556,0 -0.7112,-0.06914 -0.3556,-0.05927 -0.582788,-0.1778 -0.237067,-0.108655 -0.335844,-0.2667 -0.09878,-0.158044 -0.02963,-0.345722 0.06914,-0.237066 0.237067,-0.325966 0.167922,-0.07902 0.345722,-0.0099 0.167922,0.06914 0.444499,0.1778 0.276578,0.108656 0.632178,0.108656 0.48401,0 0.819855,-0.158045 0.335844,-0.158044 0.503766,-0.493888 0.1778,-0.335845 0.1778,-0.869244 v -0.681566 l 0.158044,0.237066 q -0.158044,0.325967 -0.414866,0.543278 -0.256822,0.217311 -0.612422,0.335844 -0.345722,0.118533 -0.770466,0.118533 -0.543278,0 -0.938388,-0.237066 -0.385233,-0.246945 -0.592667,-0.671689 -0.207433,-0.434622 -0.207433,-0.987777 V 8.5605583 q 0,-0.217311 0.138289,-0.3555998 0.138289,-0.1481665 0.3556,-0.1481665 0.207433,0 0.345722,0.1481665 0.148166,0.1382888 0.148166,0.3555998 v 2.6669977 q 0,0.651933 0.286456,0.958144 0.286455,0.296333 0.849488,0.296333 0.375355,0 0.651933,-0.158044 0.276577,-0.158045 0.434622,-0.434622 0.158044,-0.286455 0.158044,-0.661811 V 8.5605583 q 0,-0.217311 0.138289,-0.3555998 0.148166,-0.1481665 0.3556,-0.1481665 z"
         id="path312" />
    </g>
    <g
       aria-label="op"
       id="text15649"
       style="font-weight:600;font-size:9.87777px;line-height:1.25;font-family:Quicksand;-inkscape-font-specification:'Quicksand Semi-Bold';fill:#34758a;stroke-width:0">
      <path
         d="m 41.036486,10.603794 q 0,0.790222 -0.345722,1.402644 -0.345722,0.602544 -0.938388,0.948265 -0.592666,0.345722 -1.333499,0.345722 -0.740833,0 -1.333499,-0.345722 -0.592666,-0.345721 -0.948266,-0.948265 -0.345722,-0.612422 -0.345722,-1.402644 0,-0.8000993 0.345722,-1.4026433 0.3556,-0.6124217 0.948266,-0.9581437 0.592666,-0.3555997 1.333499,-0.3555997 0.740833,0 1.333499,0.3555997 0.592666,0.345722 0.938388,0.9581437 0.345722,0.602544 0.345722,1.4026433 z m -0.987777,0 q 0,-0.543277 -0.217311,-0.9383881 -0.217311,-0.4049885 -0.592666,-0.6321773 -0.365478,-0.2370665 -0.819855,-0.2370665 -0.454378,0 -0.829733,0.2370665 -0.375355,0.2271888 -0.592666,0.6321773 -0.217311,0.3951111 -0.217311,0.9383881 0,0.523522 0.217311,0.928511 0.217311,0.404988 0.592666,0.632177 0.375355,0.227189 0.829733,0.227189 0.454377,0 0.819855,-0.227189 0.375355,-0.227189 0.592666,-0.632177 0.217311,-0.404989 0.217311,-0.928511 z"
         id="path315" />
      <path
         d="m 44.770289,7.9170406 q 0.691444,0 1.224844,0.3457219 0.543277,0.345722 0.859366,0.948266 0.316088,0.5926662 0.316088,1.3828875 0,0.790222 -0.316088,1.402644 -0.316089,0.602544 -0.849489,0.948266 -0.533399,0.345722 -1.205088,0.345722 -0.375355,0 -0.711199,-0.118534 -0.335844,-0.118533 -0.592666,-0.30621 -0.256822,-0.197556 -0.424744,-0.414867 -0.158045,-0.217311 -0.197556,-0.404988 l 0.2667,-0.128411 v 2.755898 q 0,0.217311 -0.148167,0.355599 -0.138288,0.148167 -0.345722,0.148167 -0.21731,0 -0.355599,-0.148167 Q 42.15268,14.890747 42.15268,14.673436 V 8.4899513 q 0,-0.2074332 0.138289,-0.3555998 0.138289,-0.1481665 0.355599,-0.1481665 0.207434,0 0.345722,0.1481665 0.148167,0.1481666 0.148167,0.3555998 v 0.6815661 l -0.158044,-0.0889 q 0.02963,-0.1876776 0.187677,-0.3852331 0.158045,-0.2074331 0.395111,-0.385233 0.246944,-0.1777999 0.553155,-0.2864553 0.316089,-0.1086555 0.651933,-0.1086555 z m -0.108655,0.9087549 q -0.474133,0 -0.829733,0.2370665 -0.345722,0.2271887 -0.543277,0.6222995 -0.197556,0.3951105 -0.197556,0.9087545 0,0.503767 0.197556,0.918633 0.197555,0.404989 0.543277,0.642055 0.3556,0.227189 0.829733,0.227189 0.464255,0 0.809977,-0.227189 0.345722,-0.237066 0.543277,-0.642055 0.207433,-0.414866 0.207433,-0.918633 0,-0.503766 -0.207433,-0.8988767 Q 45.817333,9.2900507 45.471611,9.062862 45.125889,8.8257955 44.661634,8.8257955 Z"
         id="path317" />
    </g>
    <g
       id="g21909"
       transform="translate(-3.5665169,-2.6458334)">
      <rect
         style="fill:#34758a;fill-opacity:1;stroke:#34758a;stroke-width:0;stroke-linecap:square;stroke-linejoin:bevel;stroke-miterlimit:4;stroke-dasharray:none;stroke-opacity:1;stop-color:#000000"
         id="rect21905"
         width="1.8554339"
         height="13.045457"
         x="9.0079269"
         y="2.9047267" />
      <path
         id="path21907"
         style="fill:#34758a;stroke:#34758a;stroke-width:0;stroke-linecap:square;stroke-linejoin:bevel;stop-color:#000000"
         d="M 15.316754,5.0525014 4.2028029,6.2543055 C 4.0417933,6.2717131 3.8951735,6.1131934 3.8740594,5.8988723 L 3.7689866,4.8323351 C 3.7478743,4.6180149 3.8604946,4.431458 4.0215043,4.4140477 L 15.135456,3.2122429 c 0.161009,-0.017407 1.676039,0.7500428 1.676039,0.7500428 0,0 -1.333732,1.0728045 -1.494741,1.0902157 z"
         sodipodi:nodetypes="sssssscs" />
    </g>
    <g
       id="g21915"
       transform="translate(23.95016,-2.6458334)">
      <rect
         style="fill:#34758a;fill-opacity:1;stroke:#34758a;stroke-width:0;stroke-linecap:square;stroke-linejoin:bevel;stroke-miterlimit:4;stroke-dasharray:none;stroke-opacity:1;stop-color:#000000"
         id="rect21911"
         width="1.8554341"
         height="10.31162"
         x="9.0079269"
         y="5.6385641" />
      <path
         id="path21913"
         style="fill:#34758a;stroke:#34758a;stroke-width:0;stroke-linecap:square;stroke-linejoin:bevel;stop-color:#000000"
         d="M 14.285443,7.7157018 5.4512116,8.6237969 C 5.3232285,8.6369497 5.2066837,8.4836748 5.1899006,8.2801237 L 5.1063806,7.267182 C 5.0895989,7.0636319 5.1791183,6.8891709 5.3071013,6.8760155 L 14.141334,5.9679199 c 0.127982,-0.013153 1.332245,0.7456312 1.332245,0.7456312 0,0 -1.060153,0.9889948 -1.188136,1.0021507 z"
         sodipodi:nodetypes="sssssscs" />
    </g>
  </g>
</svg>
